<svg width="60" height="60" fill="none" xmlns="http://www.w3.org/2000/svg"><rect width="60" height="60" rx="10" fill="#303030"/><path d="M18.567 42.801 16 14h28.215l-2.57 28.797L30.09 46l-11.523-3.199Z" fill="#696A6B"/><path d="m30.107 43.552 9.338-2.588 2.196-24.608H30.107v27.196Z" fill="#595A5B"/><path d="M30.107 26.79h4.675l.322-3.617h-4.997V19.64h8.858l-.085.947-.867 9.735h-7.906V26.79Z" fill="#C7C8C9"/><path d="m30.13 35.963-.017.005-3.934-1.063-.251-2.817h-3.546l.494 5.546 7.236 2.01.017-.005v-3.676Z" fill="#E7E8E9"/><path d="m34.481 30.173-.425 4.73-3.94 1.063v3.675l7.242-2.007.053-.596.614-6.865h-3.544Z" fill="#C7C8C9"/><path d="M30.12 19.64v3.533H21.587l-.07-.795-.162-1.79-.084-.948h8.849ZM30.107 26.79v3.532H26.223l-.071-.794-.16-1.79-.085-.948h4.2Z" fill="#E7E8E9"/></svg>