<svg width="60" height="60" fill="none" xmlns="http://www.w3.org/2000/svg"><rect width="60" height="60" rx="10" fill="#303030"/><path d="M45 37.951c-1.091.278-1.766.012-2.371-.897-1.36-2.037-2.86-3.98-4.308-5.959-.186-.255-.38-.507-.622-.825-1.713 2.311-3.424 4.513-5.03 6.803-.574.818-1.177 1.175-2.25.885l6.443-8.645-5.997-7.808c1.031-.201 1.744-.098 2.376.825 1.395 2.039 2.934 3.98 4.468 6.033 1.543-2.046 3.063-3.99 4.498-6.009.577-.818 1.197-1.13 2.233-.828-.785 1.041-1.553 2.065-2.326 3.082-1.043 1.372-2.067 2.76-3.149 4.102-.385.478-.323.79.022 1.242 2 2.63 3.977 5.286 6.013 8ZM15.007 29.17c.173-.865.287-1.745.527-2.592 1.435-5.128 7.322-7.26 11.366-4.083 2.369 1.864 2.958 4.492 2.84 7.454H16.388c-.201 5.315 3.625 8.524 8.502 6.887 1.71-.574 2.718-1.914 3.223-3.59.256-.84.68-.97 1.47-.732-.405 2.097-1.321 3.848-3.236 4.944-2.871 1.642-6.97 1.11-9.126-1.17-1.273-1.34-1.814-3.008-2.053-4.81-.036-.287-.11-.57-.168-.854.005-.485.007-.97.007-1.455Zm1.405-.357h12.067c-.079-3.843-2.472-6.574-5.743-6.598-3.59-.028-6.169 2.637-6.324 6.598Z" fill="#E7E8E9"/></svg>