<svg width="60" height="60" fill="none" xmlns="http://www.w3.org/2000/svg"><rect width="60" height="60" rx="10" fill="#303030"/><path d="M44.434 28.663 31.336 15.566a1.932 1.932 0 0 0-2.732 0l-2.72 2.72 3.45 3.45a2.293 2.293 0 0 1 2.906 2.925l3.325 3.325a2.298 2.298 0 1 1-1.377 1.296l-3.101-3.1v8.16a2.299 2.299 0 1 1-1.89-.067V26.04a2.298 2.298 0 0 1-1.248-3.015l-3.402-3.402-8.98 8.98a1.932 1.932 0 0 0 0 2.734l13.098 13.098a1.932 1.932 0 0 0 2.732 0l13.037-13.037a1.934 1.934 0 0 0 0-2.734Z" fill="#E7E8E9"/></svg>