<svg width="60" height="60" fill="none" xmlns="http://www.w3.org/2000/svg"><rect width="60" height="60" rx="10" fill="#303030"/><path d="M18.568 42.801 16 14h28.217l-2.571 28.797L30.09 46l-11.523-3.199Z" fill="#696A6B"/><path d="m30.109 43.552 9.337-2.588 2.196-24.608H30.11v27.196Z" fill="#595A5B"/><path d="M30.108 27.037h-4.674l-.322-3.618h4.997v-3.532H21.25l.085.948.867 9.734h7.905v-3.532ZM30.108 36.21l-.015.005-3.934-1.062-.252-2.817h-3.546l.495 5.545 7.236 2.01.017-.005V36.21Z" fill="#E7E8E9"/><path d="M30.096 27.037v3.532h4.35l-.41 4.582-3.94 1.063v3.675l7.242-2.008.053-.596.83-9.3.086-.948h-8.211ZM30.096 19.887v3.532H38.629l.07-.793.162-1.79.084-.95h-8.849Z" fill="#C7C8C9"/></svg>