<svg width="60" height="60" fill="none" xmlns="http://www.w3.org/2000/svg"><rect width="60" height="60" rx="10" fill="#303030"/><path d="M33.492 33.435a3.882 3.882 0 0 0 3.517 2.164c1.477 0 2.42-.738 2.42-1.758 0-1.222-.97-1.655-2.594-2.367l-.892-.382c-2.571-1.096-4.28-2.468-4.28-5.37 0-2.674 2.037-4.708 5.22-4.708a5.269 5.269 0 0 1 5.073 2.859l-2.776 1.782a2.423 2.423 0 0 0-2.29-1.528 1.552 1.552 0 0 0-1.707 1.528c0 1.07.662 1.502 2.187 2.165l.892.38C41.29 29.5 43 30.824 43 33.8c0 3.21-2.52 4.968-5.907 4.968a6.848 6.848 0 0 1-6.495-3.646l2.895-1.687Zm-12.59.312c.56.994 1.07 1.833 2.291 1.833 1.171 0 1.91-.458 1.91-2.24V21.223h3.565v12.169c0 3.69-2.165 5.37-5.323 5.37A5.533 5.533 0 0 1 18 35.505l2.902-1.758Z" fill="#E7E8E9"/></svg>