<svg width="60" height="60" fill="none" xmlns="http://www.w3.org/2000/svg"><rect width="60" height="60" rx="10" fill="#303030"/><path fill-rule="evenodd" clip-rule="evenodd" d="M36.905 40.892c.048-.094.095-.176.135-.262.025-.054.063-.065.118-.064.325.01.651.02.977.023.277.003.555-.002.832-.006.312-.003.625-.02.937-.01.415.011.82.093 1.196.277.449.222.788.558 1.02 1.002.148.283.233.584.267.903.05.462.017.914-.13 1.356a2.41 2.41 0 0 1-1.005 1.282 3.264 3.264 0 0 1-1.208.467c-.458.086-.919.058-1.38.06-.504.002-1.009-.01-1.514-.015-.088 0-.1-.017-.077-.102l.021-.077c.05-.155.076-.162.233-.188a.814.814 0 0 0 .312-.119c.053-.035.075-.126.096-.197a.725.725 0 0 0 .019-.194c.007-.984.015-1.97.019-2.953 0-.25-.005-.498-.019-.747-.01-.174-.103-.293-.31-.334-.16-.032-.323-.057-.485-.085l-.054-.017Zm4.623 2.385c-.022-.197-.033-.394-.068-.588-.084-.463-.287-.867-.644-1.184-.576-.512-1.27-.59-1.998-.53-.165.014-.201.071-.204.241-.004.242-.008.483-.008.725a733.51 733.51 0 0 0 0 2.298c0 .218.003.436.009.653.007.223.088.411.306.497.343.136.705.153 1.065.097.576-.088.98-.424 1.25-.927.213-.399.274-.834.292-1.282Zm1.4 2.608a.497.497 0 0 1 .102-.309c.016-.024.073-.023.112-.03l.33-.066c.116-.025.177-.103.193-.217.011-.075.022-.152.022-.228.008-.603.015-1.206.017-1.809.003-.604 0-1.207 0-1.811l-.002-.116c-.011-.194-.105-.294-.298-.323l-.418-.063c-.051-.007-.07-.032-.051-.078.032-.078.063-.159.108-.229.017-.026.075-.036.113-.035.2.003.4.018.599.018l1.737-.01c.335 0 .658.058.958.218.33.176.515.448.568.819.055.39-.063.718-.348.979-.117.107-.268.178-.404.265l-.044.028c.126.046.246.086.362.134.342.14.614.358.758.708.113.276.113.563.046.849-.105.447-.4.745-.783.97-.36.212-.749.334-1.163.355-.383.02-.767.012-1.15.017h-.222c-.37-.008-.74-.017-1.109-.027l-.033-.009Zm1.592-1.75h.004c0 .188-.003.378 0 .567.003.122-.002.248.025.366.04.176.12.335.318.386.267.069.54.082.81.036.339-.06.609-.229.757-.551.11-.24.126-.494.088-.753a.975.975 0 0 0-.533-.752 1.442 1.442 0 0 0-.633-.18c-.252-.01-.505-.01-.757-.018-.07-.003-.08.033-.08.092.002.268 0 .537 0 .806Zm.536-1.288c.138-.007.294-.009.449-.024.296-.03.505-.179.614-.463.056-.144.054-.292.055-.442a.863.863 0 0 0-.594-.842c-.286-.102-.581-.104-.878-.096-.12.003-.174.056-.175.177l-.018 1.578c-.001.063.026.09.087.092l.46.02Z" fill="#929394"/><path fill-rule="evenodd" clip-rule="evenodd" d="m14.845 45.582-.02.271h-.557l-1.02.014-.032.003c-.048-.006-.137-.006-.14-.02-.014-.081-.009-.166-.005-.25 0-.01.033-.022.053-.026l.264-.06c.165-.042.223-.113.23-.283.01-.192.018-.384.02-.576.002-.472-.001-.944 0-1.416.001-.11-.037-.192-.14-.237a12.705 12.705 0 0 0-.37-.157c-.058-.024-.135-.037-.128-.116.007-.08.081-.1.15-.117.289-.066.577-.13.865-.2.092-.023.18-.06.291-.1.006.06.017.117.016.174l-.017.271c0 .03.015.071.038.088.014.01.06-.008.083-.026a2.66 2.66 0 0 1 .802-.442c.46-.146.854-.011 1.13.385.097.14.097.14.232.042.231-.168.474-.317.744-.415.595-.214 1.166.058 1.373.657.075.218.104.442.104.672l-.006 1.523c0 .126.042.197.161.236.135.045.274.075.425.114l-.035.262h-.488c-.387.004-.773.006-1.16.015-.067.002-.084-.015-.088-.078-.011-.201-.013-.201.177-.247l.064-.016c.185-.05.247-.108.249-.296.004-.54.015-1.081-.012-1.62-.029-.559-.472-.857-1.014-.713a1.494 1.494 0 0 0-.486.234c-.05.036-.06.077-.056.14.015.238.025.477.027.715.003.417-.002.834 0 1.252 0 .169.058.234.225.273l.249.057.046.01c.003.08.006.16.002.238-.002.05-.04.054-.084.054-.24-.006-.482-.015-.724-.014-.293 0-.587.009-.88.014h-.069c0-.084-.004-.165.003-.245.002-.02.036-.046.059-.052l.289-.061c.123-.03.181-.093.188-.218.033-.578.057-1.157.002-1.734a1.064 1.064 0 0 0-.093-.33c-.148-.327-.482-.463-.866-.365-.183.047-.348.13-.503.236a.229.229 0 0 0-.11.2c0 .576.003 1.153.005 1.729l.003.222c.003.155.07.237.223.27.099.023.199.038.311.059ZM32.23 42.372c.045.217.044.411-.116.56-.158.146-.358.097-.553.064.018.103.038.19.048.279.07.658-.212 1.147-.823 1.426-.23.105-.475.144-.725.164-.124.01-.233.105-.245.207-.012.104.053.21.183.241.153.037.313.047.47.065.338.039.68.056 1.013.117.504.09.786.53.697 1.037-.08.451-.34.78-.704 1.03-.614.426-1.286.55-2.003.333-.41-.124-.699-.393-.799-.83a.554.554 0 0 1 .168-.563c.195-.176.408-.332.612-.498l.066-.066-.076-.053c-.208-.1-.375-.235-.44-.47-.022-.08.001-.132.069-.173.115-.069.23-.14.343-.211a1.85 1.85 0 0 0 .156-.106c.068-.052.062-.09-.02-.12a1.119 1.119 0 0 1-.486-.326c-.217-.26-.278-.568-.26-.894.027-.509.304-.844.753-1.06a1.866 1.866 0 0 1 1.614-.038c.201.086.413.104.63.09a.63.63 0 0 0 .428-.205Zm-1.968 3.646c-.4-.003-.526.046-.762.286-.263.268-.262.64.001.91.2.205.449.3.726.33.323.033.642.02.936-.143.313-.173.47-.495.399-.82-.059-.267-.256-.39-.496-.46a3.197 3.197 0 0 0-.804-.103Zm-.787-2.561c.014.11.02.224.045.333.064.282.187.53.468.656.33.148.751.084.896-.379a1.396 1.396 0 0 0-.033-.941.722.722 0 0 0-.262-.34c-.286-.2-.803-.227-1.013.215a1.135 1.135 0 0 0-.101.456ZM25.429 42.3c.01.05.032.106.033.162 0 .106-.011.213-.017.32v.092l.09-.069c.247-.203.513-.377.823-.47.558-.168 1.116.137 1.298.706.069.216.096.439.099.665.006.502.009 1.004.014 1.506.002.18.023.212.193.264.097.03.197.05.296.066.055.009.079.03.076.084v.05c-.002.207-.016.217-.218.216-.482 0-.964.002-1.447.006-.143.002-.144.006-.158-.136l-.003-.082c.009-.122.012-.121.132-.139a2.29 2.29 0 0 0 .24-.051c.082-.021.121-.082.132-.162.006-.04.013-.082.013-.123-.007-.548.002-1.097-.028-1.645-.024-.443-.363-.707-.807-.677a1.164 1.164 0 0 0-.596.214c-.119.083-.143.203-.142.332.002.513.007 1.026.013 1.539 0 .112.004.225.015.336.01.122.054.171.173.198.115.025.232.04.354.06l.01.095c.004.22-.019.236-.233.235-.498-.002-.997.001-1.496.007-.079 0-.112-.024-.11-.1l-.001-.033c-.013-.198-.007-.206.18-.238l.089-.018c.203-.045.255-.1.258-.306.01-.653.013-1.305.02-1.959 0-.093-.035-.166-.123-.205a15.818 15.818 0 0 0-.37-.156c-.068-.028-.146-.046-.149-.14-.002-.068.07-.127.167-.146.196-.04.394-.073.587-.122.193-.048.382-.112.593-.175ZM36.217 44.007c-.01.61-.168 1.102-.6 1.473-.546.47-1.398.629-2.095.278a1.426 1.426 0 0 1-.658-.678 2.143 2.143 0 0 1-.16-1.435c.114-.489.41-.843.852-1.072.456-.235.936-.327 1.441-.203.64.156 1.1.677 1.191 1.342.017.116.023.234.029.294Zm-.742.33-.024-.003c0-.058.003-.115 0-.173-.022-.358-.102-.7-.31-1a1.042 1.042 0 0 0-.814-.475.781.781 0 0 0-.835.59c-.173.6-.114 1.183.19 1.732.133.24.329.416.592.509.516.181.973-.054 1.107-.582.05-.195.064-.399.094-.598ZM23.551 44.054c-.01.437-.114.842-.384 1.194-.29.376-.688.578-1.14.662-.535.1-1.038.01-1.468-.35a1.482 1.482 0 0 1-.436-.638 2.199 2.199 0 0 1-.095-1.253c.099-.457.357-.806.756-1.04.462-.27.96-.39 1.492-.269.685.157 1.08.603 1.226 1.278.03.136.033.277.049.416Zm-.75.288-.02-.003v-.082c-.01-.401-.089-.784-.328-1.117a1.039 1.039 0 0 0-.72-.447c-.496-.07-.82.224-.928.624a2.27 2.27 0 0 0 .12 1.534c.136.31.35.55.679.666.512.183.976-.058 1.106-.584.048-.193.062-.393.092-.59ZM30.444 22.541l.037 5.328-.037 2.207.052-.017c.087-.298.319-.32.545-.341a2.12 2.12 0 0 0 .16-.02 132.87 132.87 0 0 1 1.647-.27l.619-.1.285-.046c.635-.103 1.271-.206 1.907-.307.06-.009.12-.007.181-.004l.085.002.036-.105c.282-1.317.33-2.647.226-3.986-.084-1.079-.337-2.12-.69-3.14-.731-2.277-1.904-4.292-3.557-6.026-.086-.09-.175-.18-.263-.269-.34-.342-.68-.684-.91-1.117-.128-.238-.251-.479-.374-.72l-.166-.323-.005.13a2.861 2.861 0 0 0-.002.305c.008.115.02.23.033.344.015.136.03.272.036.408.02.467.03.935.04 1.403.015.753.03 1.506.038 2.26l.04 3.61c.002.129.011.258.021.387.005.06.01.119.013.178l.003.23Zm4.755-.755.235-.034-.293.043-.34.05.398-.059Zm-3.968.623c.378-.062.756-.124 1.134-.184l-1.064.173-.35.058.28-.046Z" fill="#6A6B6C"/><path d="m30.496 30.059-.052.017-.025.652-.053 1.313c-.005.123-.014.245-.024.367l-.013.179-.038.533-.005.123c.017.733.116 1.453.307 2.161l.275.605.267.228.074.05c.09-.071.18-.141.272-.21.2-.154.402-.308.581-.483.47-.463.94-.932 1.362-1.439a10.808 10.808 0 0 0 1.396-2.144c.252-.515.49-1.04.687-1.578.12-.329.21-.67.298-1.01.04-.15.078-.3.12-.45l-.085-.002a.946.946 0 0 0-.18.004c-.593.094-1.185.19-1.776.286l-.417.067-.619.1c-.549.088-1.098.176-1.646.27a2.12 2.12 0 0 1-.16.02c-.227.021-.46.043-.546.34Z" fill="#6A6B6C"/><path fill-rule="evenodd" clip-rule="evenodd" d="M28.043 15.69c.132-.128.262-.259.392-.389.298-.298.596-.596.91-.877.4-.359.721-.744.736-1.311l.032-.113.114.287-.005.135c-.004.1-.008.2-.002.3.008.113.02.226.032.34.015.137.03.274.036.412.021.467.031.935.04 1.403.016.753.03 1.506.04 2.259l.039 3.61c.002.127.011.253.02.38l.014.186.003.23.037 5.327-.037 2.207-.02.527-.058 1.439c-.005.127-.015.254-.025.381l-.012.165-.038.533-.034.123-.05.514c-.04.413-.079.825-.129 1.236-.024.2-.068.4-.112.597-.02.09-.04.18-.057.27l-.191.652c-.116-.1-.234-.198-.352-.297-.257-.216-.515-.432-.76-.663-1.914-1.806-3.314-3.932-4.004-6.495a10.518 10.518 0 0 1-.37-2.358c-.026-.442-.053-.886-.021-1.324.095-1.35.29-2.686.686-3.986l.022-.03.719-1.943a.936.936 0 0 0 .047.056c.037.04.073.08.088.126a959.502 959.502 0 0 1 2.313 6.888c.32.963.64 1.926.963 2.889.248.74.5 1.478.753 2.22a909.093 909.093 0 0 1 .009.025c-.256-.75-.511-1.497-.762-2.245-.322-.963-.643-1.926-.963-2.89l-.841-2.523c-.487-1.456-.978-2.91-1.472-4.364a.387.387 0 0 0-.087-.126c-.017-.018-.034-.037-.048-.056l1.075-1.977 1.33-1.75Zm2.241 6.45c-.222-.652-.44-1.305-.658-1.958l-.36-1.077.359 1.073c.218.655.437 1.309.66 1.961Z" fill="#929394"/><path fill-rule="evenodd" clip-rule="evenodd" d="m30.257 33.243.034-.122-.005.123a9.1 9.1 0 0 0 .307 2.16l.275.606.267.227.074.051-.231.41-.081.265-.112 1.218-.031.032c-.02.019-.039.038-.05.06.01-.021.03-.04.048-.057l.002-.002a.49.49 0 0 0 .03-.033l.004.8.055.812-.323-.126-.31-.109a.53.53 0 0 0-.038-.043c-.03-.03-.06-.061-.062-.094a5.493 5.493 0 0 1-.004-.406l.002-.15-.073-.913-.153-.876-.164-.563.19-.652.058-.27c.044-.198.088-.396.112-.597.05-.411.09-.823.13-1.236.016-.171.032-.343.05-.515Zm-.331 3.784-.003.003a1.091 1.091 0 0 0 .003-.003Z" fill="#515354"/></svg>