<svg width="60" height="60" fill="none" xmlns="http://www.w3.org/2000/svg"><rect width="60" height="60" rx="10" fill="#303030"/><path d="M39.666 25.651a20.068 20.068 0 0 0-.966-.304c.055-.223.105-.443.15-.659.73-3.548.252-6.407-1.38-7.348-1.565-.903-4.124.038-6.71 2.288a19.92 19.92 0 0 0-.746.685 18.3 18.3 0 0 0-.497-.459c-2.71-2.405-5.425-3.419-7.055-2.475-1.564.905-2.027 3.592-1.369 6.955.064.325.138.657.222.994-.384.11-.755.226-1.11.35C17.028 26.784 15 28.52 15 30.32c0 1.86 2.177 3.724 5.486 4.855.26.09.532.174.81.254a19.6 19.6 0 0 0-.235 1.07c-.627 3.305-.137 5.93 1.422 6.829 1.61.929 4.314-.026 6.946-2.327.208-.182.417-.375.626-.577.271.261.542.508.811.74 2.55 2.194 5.068 3.08 6.626 2.178 1.61-.931 2.132-3.75 1.453-7.18-.052-.262-.112-.53-.18-.802.19-.056.376-.114.558-.174C42.763 34.046 45 32.205 45 30.32c0-1.806-2.094-3.553-5.334-4.669Zm-.746 8.319c-.164.054-.332.106-.504.157a30.064 30.064 0 0 0-1.519-3.8 30.062 30.062 0 0 0 1.46-3.745c.307.088.605.182.892.281 2.776.956 4.47 2.369 4.47 3.457 0 1.16-1.83 2.666-4.799 3.65Zm-1.232 2.441c.3 1.517.343 2.888.144 3.96-.178.963-.538 1.605-.982 1.862-.946.547-2.967-.164-5.148-2.04-.25-.215-.502-.445-.754-.688.845-.925 1.69-2 2.514-3.193 1.45-.129 2.821-.34 4.064-.627.06.247.115.49.162.726Zm-12.46 5.727c-.924.327-1.66.336-2.104.08-.947-.546-1.34-2.653-.803-5.48.061-.323.134-.655.218-.995a30.14 30.14 0 0 0 4.043.585c.83 1.168 1.7 2.242 2.576 3.182-.192.184-.383.36-.572.526-1.164 1.017-2.33 1.74-3.358 2.102ZM20.9 33.963c-1.463-.5-2.67-1.15-3.499-1.86-.744-.637-1.12-1.27-1.12-1.783 0-1.092 1.63-2.485 4.345-3.432.33-.115.675-.224 1.033-.325a30.717 30.717 0 0 0 1.462 3.789 31.233 31.233 0 0 0-1.48 3.842c-.255-.073-.503-.15-.74-.232Zm1.45-9.875c-.563-2.88-.189-5.055.754-5.6 1.003-.581 3.223.247 5.562 2.325.15.132.3.271.45.415a30.688 30.688 0 0 0-2.556 3.162c-1.41.131-2.761.341-4.003.623a18.755 18.755 0 0 1-.206-.925Zm12.941 3.196a40.709 40.709 0 0 0-.912-1.5 28.25 28.25 0 0 1 2.736.478c-.259.828-.581 1.695-.96 2.583a44.67 44.67 0 0 0-.864-1.561Zm-5.277-5.14c.591.64 1.183 1.355 1.766 2.131a37.76 37.76 0 0 0-3.546 0 28.268 28.268 0 0 1 1.78-2.131Zm-5.31 5.149a37.747 37.747 0 0 0-.848 1.551 28.296 28.296 0 0 1-.953-2.596 28.895 28.895 0 0 1 2.72-.467c-.315.492-.622.996-.92 1.512Zm.946 7.658c-.982-.11-1.909-.258-2.764-.444a28.78 28.78 0 0 1 .972-2.649 37.847 37.847 0 0 0 1.793 3.093Zm4.4 3.636a28.767 28.767 0 0 1-1.805-2.16c.574.023 1.16.034 1.755.034.611 0 1.216-.013 1.81-.04a27.275 27.275 0 0 1-1.76 2.166Zm6.117-6.775c.4.914.739 1.798 1.007 2.64-.87.198-1.809.357-2.798.476.311-.493.619-1.003.92-1.526.306-.53.596-1.061.87-1.59Zm-1.98.95c-.47.813-.95 1.589-1.44 2.321-.89.064-1.81.097-2.747.097-.934 0-1.842-.03-2.716-.086a35.996 35.996 0 0 1-2.746-4.743 36.057 36.057 0 0 1 2.73-4.734 36.065 36.065 0 0 1 5.469 0c.496.733.98 1.505 1.445 2.309.47.813.903 1.618 1.293 2.407-.39.803-.82 1.616-1.288 2.428ZM36.83 18.45c1.005.58 1.395 2.916.764 5.98-.04.195-.085.394-.135.596a30.705 30.705 0 0 0-4.01-.634 30.116 30.116 0 0 0-2.537-3.165c.23-.221.461-.433.69-.633 2.215-1.927 4.285-2.688 5.228-2.144ZM30 27.642a2.679 2.679 0 1 1 0 5.357 2.679 2.679 0 0 1 0-5.357Z" fill="#E7E8E9"/></svg>